HIERARCHY
ROOT Hips
{
  OFFSET 13.6774 106.653 -34.4427
  CHANNELS 6 Xposition Yposition Zposition Zrotation Xrotation Yrotation
  JOINT ToSpine
  {
    OFFSET -2.69724 7.43032 -0.144315
    CHANNELS 3 Zrotation Xrotation Yrotation
    JOINT Spine
    {
      OFFSET -0.0310711 10.7595 1.96963
      CHANNELS 3 Zrotation Xrotation Yrotation
      JOINT Spine1
      {
        OFFSET 19.9056 3.91189 0.764692
        CHANNELS 3 Zrotation Xrotation Yrotation
        JOINT Neck
        {
          OFFSET 25.9749 7.03908 -0.130764
          CHANNELS 3 Zrotation Xrotation Yrotation
          JOINT Head
          {
            OFFSET 9.52751 0.295786 -0.907742
            CHANNELS 3 Zrotation Xrotation Yrotation
            End Site
            {
              OFFSET 16.4037 0.713936 2.7358
            }
          }
        }
        JOINT LeftShoulder
        {
          OFFSET 17.7449 4.33886 11.7777
          CHANNELS 3 Zrotation Xrotation Yrotation
          JOINT LeftArm
          {
            OFFSET 0.911315 1.27913 9.80584
            CHANNELS 3 Zrotation Xrotation Yrotation
            JOINT LeftForeArm
            {
              OFFSET 28.6126 1.18197 -3.53199
              CHANNELS 3 Zrotation Xrotation Yrotation
              JOINT LeftHand
              {
                OFFSET 27.5088 0.0218783 0.327423
                CHANNELS 3 Zrotation Xrotation Yrotation
                End Site
                {
                  OFFSET 18.6038 -0.000155887 0.382096
                }
              }
            }
          }
        }
        JOINT RightShoulder
        {
          OFFSET 17.1009 2.89543 -12.2328
          CHANNELS 3 Zrotation Xrotation Yrotation
          JOINT RightArm
          {
            OFFSET 1.4228 0.178766 -10.211
            CHANNELS 3 Zrotation Xrotation Yrotation
            JOINT RightForeArm
            {
              OFFSET 28.733 1.87905 2.64907
              CHANNELS 3 Zrotation Xrotation Yrotation
              JOINT RightHand
              {
                OFFSET 27.4588 0.290562 -0.101845
                CHANNELS 3 Zrotation Xrotation Yrotation
                End Site
                {
                  OFFSET 17.8396 -0.255518 -0.000602873
                }
              }
            }
          }
        }
      }
    }
  }
  JOINT LeftUpLeg
  {
    OFFSET -5.61296 -2.22332 -10.2353
    CHANNELS 3 Zrotation Xrotation Yrotation
    JOINT LeftLeg
    {
      OFFSET 2.56703 -44.7417 -7.93097
      CHANNELS 3 Zrotation Xrotation Yrotation
      JOINT LeftFoot
      {
        OFFSET 3.16933 -46.5642 -3.96578
        CHANNELS 3 Zrotation Xrotation Yrotation
        JOINT LeftToeBase
        {
          OFFSET 0.346054 -6.02161 12.8035
          CHANNELS 3 Zrotation Xrotation Yrotation
          End Site
          {
            OFFSET 0.134235 -1.35082 5.13018
          }
        }
      }
    }
  }
  JOINT RightUpLeg
  {
    OFFSET -5.7928 -1.72406 10.6446
    CHANNELS 3 Zrotation Xrotation Yrotation
    JOINT RightLeg
    {
      OFFSET -2.57161 -44.7178 -7.85259
      CHANNELS 3 Zrotation Xrotation Yrotation
      JOINT RightFoot
      {
        OFFSET -3.10148 -46.5936 -4.03391
        CHANNELS 3 Zrotation Xrotation Yrotation
        JOINT RightToeBase
        {
          OFFSET -0.0828122 -6.13587 12.8035
          CHANNELS 3 Zrotation Xrotation Yrotation
          End Site
          {
            OFFSET -0.131328 -1.35082 5.13018
          }
        }
      }
    }
  }
}
MOTION
Frames: 17
Frame Time: 0.03333333333333333
0.0000 93.1000 0.0000 -42.9681 -42.9318 -144.1767 -71.3438 -0.6684 87.7537 90.0868 62.5978 -2.2262 5.6847 10.7996 11.1341 -130.6643 18.9135 -179.7709 -133.7941 52.8183 172.7202 0.8992 -12.1167 -12.8601 -107.7930 36.1607 -82.1541 -4.8664 2.3244 -126.9465 -3.9796 0.2547 0.2277 -1.9026 1.2048 22.9117 -69.1322 -44.9956 125.1139 1.6458 2.2380 131.2562 0.3012 -3.3020 -3.8725 -68.3078 2.4944 103.4510 -2.7437 35.6232 -7.5179 -4.0249 -9.2210 -0.9045 11.1268 -21.1299 13.8932 -12.2567 16.7612 105.3631 5.7377 57.5143 13.7271 -4.1090 -11.0553 1.6016 -1.6838 -6.2354 -2.3135 
0.0000 93.1000 0.0000 -39.0270 -47.5755 -139.4188 -71.4633 -0.2724 87.6320 87.9064 62.7858 -1.0403 4.8535 11.3674 11.7664 -128.5727 19.8410 178.1427 -132.4833 54.4489 173.5485 0.8276 -11.8194 -12.1686 -111.9365 37.8452 -82.1694 -4.9250 2.3346 -127.2064 -3.1244 -0.1989 1.4696 -0.3163 0.7259 21.4480 -68.9992 -46.0156 127.7732 4.4291 3.4958 129.9196 -0.2608 -0.3451 -0.2562 -67.7005 3.7167 101.5846 -2.7106 35.7192 -8.0556 -4.3934 -8.7213 -0.7971 10.6398 -22.3780 15.0057 -12.4478 14.4705 104.5964 5.8374 57.7746 11.4918 -4.9003 -12.6171 0.8168 -0.0308 -4.2795 -3.1840 
0.0000 93.1000 0.0000 -33.8554 -52.2836 -133.3208 -71.4700 0.5931 87.5455 88.1356 63.5595 -0.5122 4.4995 11.5032 11.2610 -127.8708 21.5339 178.6371 -134.4216 57.0192 174.9140 1.0708 -12.2536 -11.9078 -114.5551 39.2511 -85.0309 -3.3288 2.0548 -127.1105 -2.5645 0.1398 1.4783 0.8662 1.1596 17.8871 -71.3305 -47.1877 128.9169 7.7892 5.8909 128.2196 -0.2897 0.3294 0.3924 -66.2187 5.5896 99.9516 -2.9042 35.9700 -5.9919 -5.0060 -7.8679 -1.1722 10.0473 -22.8125 13.0009 -13.8039 11.5346 103.3973 4.7967 58.1169 9.7070 -4.8554 -14.4540 0.8109 0.4359 -4.1686 -1.5148 
0.0000 93.1000 0.0000 -26.4965 -56.9137 -125.1822 -71.3719 0.6770 87.4582 88.0458 64.0427 0.0810 4.2095 11.9800 10.2263 -124.0533 22.5186 177.1949 -136.7327 58.9104 177.1583 0.8822 -12.1081 -10.7464 -114.6869 41.9369 -89.2902 -1.3354 0.7109 -125.8264 -2.6496 0.3692 1.1499 0.7692 1.8635 17.0656 -74.2805 -47.0271 129.1425 8.2544 6.6558 127.2418 -0.2702 0.2446 0.5758 -66.1395 6.4619 99.4022 -3.0609 34.9602 -5.8322 -5.0297 -7.4518 -1.2545 9.9400 -21.5261 15.3053 -16.6106 8.1198 101.8367 3.8902 56.9666 8.1442 -4.8007 -15.0486 1.0444 0.8092 -5.1366 -3.8628 
0.0000 93.1000 0.0000 -18.1257 -60.5772 -116.2761 -71.1352 -1.5893 87.3064 87.0578 64.7014 1.0922 3.8555 12.3247 9.5164 -122.7145 23.3255 174.0435 -135.2707 60.2548 175.1705 -0.8696 -12.7884 -10.5956 -112.9697 43.9651 -92.2169 2.5838 -2.9297 -124.2217 -3.5171 -0.4458 0.0639 -1.9360 3.2093 16.9663 -77.6409 -47.5075 128.0836 9.9766 9.3036 126.4320 0.2216 -1.4178 -1.4008 -65.0518 7.1498 99.2299 -1.3985 34.1194 -4.5987 -5.4597 -8.6592 -0.1605 10.0909 -20.5626 15.9779 -18.1865 4.4527 99.9071 5.5654 56.9962 6.3994 -4.7691 -15.6410 1.3772 -2.0208 -4.3949 -4.4892 
0.0000 93.1000 0.0000 -6.6111 -63.0090 -104.2878 -71.0300 -0.0130 87.5639 86.9917 64.9448 2.0275 4.2422 13.0795 8.7955 -120.3674 23.4901 174.2785 -140.0061 62.2959 -180.3219 -0.3891 -13.2726 -12.0229 -111.4368 44.2999 -96.2133 2.8085 -2.6076 -123.0574 -3.1010 0.2583 0.6914 0.1244 3.4831 13.4335 -80.0811 -49.3093 128.0776 12.4776 9.1854 123.6413 0.0999 -0.3426 0.3980 -64.3147 8.8920 100.1041 -1.9873 33.6439 -1.9978 -5.6642 -8.9604 -0.9401 7.5727 -18.1178 13.7585 -19.5150 1.5714 98.1240 3.6959 55.5490 5.0604 -5.8257 -16.3667 1.2551 0.9894 -5.1298 -6.2848 
0.0000 93.1000 0.0000 4.1289 -64.0367 -92.2102 -71.0417 -0.3418 87.4171 84.9770 64.8193 2.9336 4.2918 12.8875 9.0375 -119.4063 24.4924 172.8878 -141.5677 63.3051 -178.1752 -0.0768 -13.7574 -12.6507 -109.3846 45.3320 -99.2525 2.1126 -2.5084 -121.9170 -3.0386 0.1692 0.3768 -0.0214 3.9634 11.8832 -82.6392 -50.3919 126.1997 13.9240 10.2270 123.1624 0.4028 -0.6914 0.1217 -61.8739 9.7946 99.7794 -1.8684 32.1943 -0.7754 -6.7935 -9.4494 -0.8204 7.2616 -16.7989 13.8929 -20.8146 -2.0274 95.3103 4.4287 55.0908 3.4130 -5.1462 -16.4665 1.0622 0.5534 -4.1750 -9.3750 
0.0000 93.1000 0.0000 15.2221 -64.0149 -80.2293 -71.1459 -0.3966 87.3657 83.9903 65.5310 4.6945 4.3202 13.6755 7.3162 -117.1849 24.1931 169.1596 -141.6157 64.0515 -177.8212 -0.3156 -13.9984 -11.5286 -106.7793 46.7135 -104.3639 3.6119 -3.2745 -119.6583 -3.0593 -0.1155 0.8009 -0.2502 4.2605 11.9930 -86.1309 -50.0862 124.1610 15.0589 10.4874 122.8209 0.4495 -0.1500 0.5732 -61.1842 9.9075 100.8413 -2.1665 30.8875 2.1140 -6.1785 -9.1055 -0.9158 6.3722 -15.5508 11.3303 -21.9356 -4.2357 92.3983 3.8578 54.2723 3.9696 -5.6292 -15.9495 1.0008 0.6497 -3.8861 -9.0634 
0.0000 93.1000 0.0000 23.7174 -64.1212 -70.5473 -71.1583 -0.9690 87.3074 82.8940 65.8204 5.9456 4.2567 14.3580 6.8122 -116.4123 24.7027 168.7827 -144.9047 65.0332 -173.8649 -0.9360 -14.1179 -11.8672 -105.0850 48.1770 -107.3054 6.2161 -4.3109 -117.8382 -3.3100 -0.4559 0.8433 -0.8123 4.6323 10.9506 -87.6856 -50.5469 123.4659 17.0113 11.5270 121.9304 0.7275 0.0194 0.0588 -60.2477 10.6497 100.9530 -2.1699 30.6292 0.5588 -6.1056 -9.0863 -0.3916 5.5845 -14.5140 14.1319 -23.5794 -6.7537 88.3196 3.1681 52.5073 3.4954 -5.3646 -16.1316 0.9487 -0.2941 -2.8274 -9.2795 
0.0000 93.1000 0.0000 32.7068 -63.4676 -60.4626 -71.1837 0.2614 87.2291 82.9585 66.5816 5.6288 4.1920 14.9700 6.1638 -114.0957 24.3834 167.4040 -145.1691 65.9780 -171.4229 0.1486 -14.3538 -11.8425 -102.8871 49.2403 -109.2366 7.0213 -4.8403 -117.9186 -2.6838 0.2875 1.2324 0.3348 4.9006 11.3900 -91.0011 -49.7904 121.1097 17.2212 11.8693 121.7400 0.4480 0.4502 0.9425 -58.9843 11.4471 100.8708 -2.5532 30.3730 -0.6244 -5.2577 -9.1239 -1.1806 4.7646 -13.5560 14.3075 -25.3538 -9.5546 84.1310 2.4995 51.7339 4.7585 -6.6625 -15.1397 0.8888 1.5146 -4.7470 -10.6544 
0.0000 93.1000 0.0000 39.4036 -60.9385 -52.0027 -71.1290 -0.0527 86.9956 83.8090 66.8865 6.0339 4.2187 15.7312 5.8157 -112.2131 23.6738 163.4277 -141.8349 66.0699 -175.1600 0.4721 -14.8565 -11.0476 -99.7528 50.9822 -112.1729 9.5240 -5.8119 -115.8408 -2.8332 0.1776 1.0031 0.2122 5.0780 12.8286 -94.7245 -48.0564 118.3439 17.6950 12.0144 121.7587 0.0489 -0.0474 0.0709 -57.1303 11.4768 100.0647 -2.2471 30.1428 -0.0834 -4.5284 -8.5210 -1.1837 5.4352 -15.0372 12.8804 -28.6634 -11.7193 81.2149 2.8651 49.3113 4.2677 -6.0822 -14.6824 1.1912 1.0036 -3.2522 -9.8667 
0.0000 93.1000 0.0000 43.0778 -59.1047 -47.0422 -71.0741 -0.0754 86.9790 82.9307 67.6268 5.9968 4.2612 15.7892 6.0609 -111.1952 23.0924 160.6319 -141.0082 67.0555 -176.2673 0.7026 -14.8943 -10.1862 -96.9720 52.2007 -115.3127 9.9012 -5.8571 -114.6925 -2.9276 0.3197 0.7195 -0.0765 4.8529 14.0946 -97.6200 -46.9542 116.9713 17.8737 12.3271 122.4709 0.0650 -0.7272 -0.6037 -56.0522 11.7876 98.9705 -2.0051 29.8101 0.6849 -2.6350 -8.0406 -1.1687 3.9969 -12.4000 12.0298 -29.5465 -13.1368 79.0668 1.9863 46.5329 3.2046 -4.2035 -13.7554 1.2509 0.3614 -2.0741 -7.0264 
0.0000 93.1000 0.0000 47.1204 -57.8562 -42.2138 -71.1556 -0.3083 87.1984 83.7711 67.9450 5.7772 4.4285 16.3925 5.3363 -111.1274 22.9251 160.4558 -142.9001 67.2978 -174.7245 0.5866 -14.7801 -10.2077 -94.8230 52.1026 -118.1488 9.2802 -5.3062 -114.5367 -2.3666 0.2148 0.8541 -0.1928 4.5009 13.8515 -98.7391 -47.5256 116.0590 18.3425 13.3850 122.5131 0.0404 -0.6757 -0.6516 -55.2834 11.3606 97.8624 -1.6171 29.8865 1.5321 -0.8454 -7.8274 -0.9181 3.2787 -10.4044 9.1116 -31.6199 -14.2407 77.2035 1.9123 44.0826 2.5445 -3.6557 -12.0831 0.9583 -0.2647 -1.7525 -5.0505 
0.0000 93.1000 0.0000 50.2395 -56.3326 -38.9376 -71.2199 -0.0818 87.2885 83.7926 68.0812 5.7763 4.6816 16.9845 5.6005 -112.2447 23.5192 161.5804 -147.1108 67.9827 -170.2331 0.8946 -14.0903 -10.6708 -93.8432 51.3147 -119.3050 9.5077 -5.0402 -113.7171 -1.9456 0.2594 1.2348 0.0347 4.7896 12.3948 -98.8658 -48.5560 116.0161 20.3865 14.7702 122.6331 0.0009 -0.3131 -0.2455 -53.8488 11.0635 95.9873 -1.1744 29.9125 0.9789 -0.2125 -8.0342 -1.0812 2.9386 -10.1102 7.7723 -32.9453 -14.8727 76.3486 1.7839 42.1627 1.3861 -2.8418 -10.9376 0.6797 0.0883 -1.1730 -4.1394 
0.0000 93.1000 0.0000 51.3004 -54.9893 -37.6566 -71.1610 -0.1519 87.1464 83.5804 68.4603 5.2672 4.5952 17.1057 5.3635 -111.0992 23.6793 160.6138 -150.0300 68.0824 -168.4995 0.7955 -13.8924 -10.7828 -92.7866 51.2375 -119.9092 9.6458 -4.9223 -112.9736 -1.9676 0.1808 1.6533 -0.3570 4.9549 12.3711 -100.6772 -48.7265 114.0190 21.4970 15.3059 122.6799 0.1410 -0.4001 -0.6478 -52.8036 10.0703 95.0158 -2.0948 29.7957 1.0289 -0.5104 -8.0171 -0.8388 3.2399 -10.1921 5.7070 -33.7653 -15.1761 76.1459 0.5912 40.1744 -1.5356 -2.5682 -10.0525 0.6489 -0.3587 -1.9740 -1.8622 
0.0000 93.1000 0.0000 53.1741 -54.0617 -35.2296 -71.0990 -0.1531 87.1244 82.6734 68.7307 5.9351 4.5773 17.1735 4.9893 -111.0373 22.7674 158.9606 -146.0646 68.1931 -172.4262 0.7037 -13.5993 -10.0455 -91.8482 52.0386 -121.0127 10.0431 -4.9122 -112.7232 -1.8942 0.0721 1.5337 -0.3891 5.0509 14.0935 -103.7056 -47.2132 112.0188 19.8937 14.4422 122.5515 0.1252 -0.2686 -1.0444 -52.1241 9.8731 94.9396 -2.5225 31.1431 0.4468 -1.2993 -8.8800 -0.7637 3.2062 -10.2059 4.7983 -34.9474 -16.0230 76.4437 0.5274 38.2141 -2.1297 -3.1750 -8.1678 0.1984 0.0446 -2.5975 0.1813 
0.0000 93.1000 0.0000 54.2048 -53.8758 -33.5193 -71.2114 0.0020 87.0944 82.5295 69.0550 5.0788 5.1888 17.5420 5.1297 -111.1515 22.8624 157.5778 -145.1450 68.3865 -173.2439 1.2125 -13.8461 -10.0426 -88.9566 53.0566 -124.9783 10.6470 -4.8727 -111.7834 -2.0418 0.4635 0.7915 -0.8526 4.9619 14.9469 -105.7218 -47.2639 109.7034 20.0393 15.2492 123.2066 0.3450 -1.0196 -1.3633 -51.7247 9.1529 95.1045 -1.9606 31.9463 -1.7897 -1.4231 -9.6746 -1.0873 3.5689 -10.2065 4.7224 -36.0348 -17.1152 76.1891 0.2683 35.9468 -2.5328 -3.6791 -5.8779 0.3416 -0.0527 -3.4368 1.5184 
